<?xml version="1.0" encoding="UTF-8"?>
<!-- Generator: Adobe Illustrator 26.1.0, SVG Export Plug-In . SVG Version: 6.00 Build 0)  -->
<svg xmlns="http://www.w3.org/2000/svg" xmlns:xlink="http://www.w3.org/1999/xlink" version="1.1" id="Layer_1" x="0px" y="0px" width="641.536px" height="474.184px" viewBox="0 0 641.536 474.184" xml:space="preserve">
<path id="_x23_000000" d="M516.285,448.034c-11.389,13.209-38.249,11.46-57.827-5.507c-20.652-17.899-21.386-40.844-11.105-54.932  c8.811-12.073,36.332-11.322,55.953,5.596S527.674,434.826,516.285,448.034z M111.729,393.191  c-19.62,16.918-24.368,41.635-12.979,54.844c11.389,13.209,38.249,11.46,57.827-5.507c20.652-17.899,21.386-40.844,11.105-54.932  C158.871,375.521,131.35,376.273,111.729,393.191z M41.599,86.665l-0.404-2.043l2.051,0.36c0.29,0.051,5.842,1.06,14.19,4.927  c-2.034-3.442-4.136-8.689-5.444-16.597l-0.346-2.097l2.073,0.472c0.423,0.097,8.734,2.039,14.784,6.922  c-0.813-4.873-1.691-12.764-0.605-20.268l0.316-2.18l1.861,1.179c0.488,0.309,10.27,6.559,15.502,13.939  c0.585-3.499,1.989-8.498,5.34-13.525l1.003-1.504l1.231,1.324c0.304,0.327,6.685,7.29,9.55,18.109c1.8-3.573,4.958-8.915,9.65-13.7  l1.342-1.369l0.927,1.678c0.24,0.435,5.194,9.632,3.522,24.035c19.253,12.675,38.94,32.774,52.683,47.969  c-11.927,7.43-35.027,17.065-62.945,48.7c-15.887,18.002-28.569,40.854-37.265,63.943c-29.09-60.273-30.397-108.383-19.783-138.443  C47.92,103.739,43.285,95.201,41.599,86.665z M104.448,78.656c3.603,1.621,7.28,3.631,10.984,5.937  c0.775-9.173-1.268-15.967-2.486-19.063C108.571,70.454,105.774,75.788,104.448,78.656z M88.098,74.225  c3.809,0.206,7.819,1.136,11.954,2.643c-1.934-7.621-5.81-13.335-7.782-15.884C89.133,66.403,88.311,71.623,88.098,74.225z   M71.49,79.056c1.964-1.316,3.98-2.398,6.032-3.224c2.103-0.847,4.317-1.344,6.617-1.546c-3.343-5.544-10.307-10.865-13.682-13.24  C69.841,67.914,70.763,74.945,71.49,79.056z M60.637,89.624c2.251-3.012,4.668-5.62,7.207-7.794  c-3.886-3.653-9.573-5.803-12.631-6.759C56.657,82.374,58.79,86.889,60.637,89.624z M44.902,88.304  c1.621,6.278,4.761,12.485,7.228,16.759c1.737-4.318,3.729-8.222,5.925-11.689C52.157,90.484,47.466,88.992,44.902,88.304z   M622.929,309.91c4.391,4.736,11.077,15.176,11.077,15.176s-9.742-1.047-14.717-1.403c4.463,10.246,2.578,19.803,2.578,19.803  l-2.164-2.43c-0.075-0.083-5.181-5.811-9.923-10.798c-0.198,0.145-0.393,0.28-0.59,0.418c3.089,18.685-3.938,22.987-3.938,22.987  l-0.735-2.615c-0.024-0.086-2.08-7.329-5.829-15.173c-3.472,1.063-6.192,1.318-7.65,1.576c0.562-1.606,1.146-3.357,1.755-5.295  c1.768-5.616,4.912-16.922,4.745-18.543c-0.038-0.37-0.147-0.724-0.315-1.046c-0.222-0.423-1.208-1.67-2.857-1.549  c-2.006,0.147-6.566,1.415-19.524,5.374c-6.194,1.892-12.387,3.836-15.752,4.897c-0.304,0.096-0.631,0.043-0.896-0.134  c-0.003-0.002-0.006-0.004-0.009-0.006c-0.308-0.207-0.474-0.564-0.443-0.935c3.222-37.682-17.043-99.155-51.979-137.68  c-4.299-4.741-8.477-8.964-12.519-12.765c26.806,9.272,103.156,40.526,123.888,101.564c0.696,2.05,1.312,4.029,1.874,5.959  c10.85,4.6,17.658,15.422,17.956,15.901l1.471,2.373l-2.785-0.197c-3.349-0.236-6.178-0.303-8.435-0.291  c7.273,4.165,14.323,13.608,14.323,13.608S630.349,308.573,622.929,309.91z M620.013,280.943c1.056,4.093,1.797,7.901,2.261,11.449  c1.894-0.135,5.286-0.274,10.057-0.07c0.209,0.009,0.342-0.229,0.213-0.394C630.16,288.877,625.755,284.005,620.013,280.943z   M606.591,332.363c-1.819,1.079-3.562,1.91-5.191,2.557c2.168,4.565,3.755,8.86,4.728,11.743c0.049,0.147,0.26,0.145,0.308-0.001  C607.914,342.212,607.244,336.107,606.591,332.363z M619.402,336.074c-0.283-4.348-1.622-8.542-2.977-11.793  c-1.473,1.593-2.941,2.987-4.39,4.203c2.581,2.718,5.229,5.608,7.123,7.697C619.247,336.28,619.411,336.206,619.402,336.074z   M621.497,312.578c-0.796,3.046-1.913,5.753-3.297,8.153c2.495,0.075,6.087,0.342,9.729,1.171c0.247,0.056,0.437-0.215,0.293-0.424  C626.338,318.741,623.75,315.143,621.497,312.578z M635.626,305.637c-2.901-3.066-7.802-7.608-12.961-9.584  c0.324,4.032,0.261,7.696-0.136,11.023c3.112-0.511,8.226-1.186,12.922-1.06C635.655,306.022,635.766,305.785,635.626,305.637z   M280.688,92.069c7.958-0.497,17.622-0.939,26.83-0.939c9.208,0,18.872,0.442,26.83,0.939l5.646-8.84  c0.295-0.465,0.8-0.766,1.35-0.805c0.551-0.039,1.091,0.188,1.447,0.603l8.312,9.428c0.551,0.625,0.817,1.451,0.735,2.28  c-0.162,1.635-1.607,2.836-3.244,2.693c-6.897-0.605-24.728-2.014-41.075-2.014c-16.347,0-34.178,1.41-41.076,2.014  c-1.637,0.143-3.081-1.058-3.243-2.693c-0.082-0.829,0.184-1.655,0.735-2.28l8.312-9.428c0.356-0.415,0.896-0.642,1.447-0.603  c0.55,0.039,1.055,0.34,1.35,0.805L280.688,92.069z M277.435,92.281l-3.998-6.26l-6.051,7.027  C269.894,92.834,273.359,92.558,277.435,92.281z M337.6,92.281c4.076,0.277,7.54,0.553,10.049,0.766l-6.051-7.027L337.6,92.281z   M336.528,70.757c6.469-0.27,26.813-0.82,45.601,1.833c1.164,0.164,2.245-0.626,2.426-1.787v0c0.183-1.176-0.626-2.284-1.804-2.45  c-19.119-2.701-39.769-2.149-46.4-1.874c-1.198,0.05-2.118,1.072-2.046,2.269C334.375,69.91,335.362,70.805,336.528,70.757z   M230.48,70.802c0.181,1.162,1.262,1.952,2.426,1.787c18.788-2.653,39.131-2.102,45.601-1.833c1.166,0.049,2.152-0.846,2.223-2.011  c0.072-1.197-0.848-2.219-2.046-2.269c-6.631-0.275-27.281-0.827-46.4,1.874C231.105,68.518,230.297,69.626,230.48,70.802  L230.48,70.802z M614.791,378.657c0.386,1.098,0.311,2.325-0.207,3.368c-6.387,12.853-18.265,15.682-24.002,16.286  c0.186,14.977-3.659,29.167-11.425,41.086c-9.218,14.149-28.226,31.612-66.433,34.457c-2.956,0.22-5.879,0.33-8.766,0.33  c-18.343,0-35.177-4.421-49.106-12.957c-7.724-4.734-14.391-10.649-19.892-17.544c-18.812,3.79-58.907,9.628-127.442,9.628  c-68.536,0-108.63-5.838-127.442-9.628c-5.501,6.895-12.168,12.81-19.892,17.544c-13.928,8.536-30.762,12.957-49.106,12.957  c-2.887,0-5.81-0.109-8.766-0.33c-38.207-2.845-57.215-20.308-66.433-34.457c-7.766-11.92-11.61-26.109-11.425-41.086  c-5.737-0.603-17.615-3.432-24.002-16.286c-0.518-1.042-0.593-2.27-0.207-3.368c0.386-1.097,1.213-2.004,2.268-2.491  c9.354-4.315,18.478-5.89,26.413-4.579c0.317-0.988,0.645-1.976,0.996-2.964c1.613-4.537,3.401-8.692,5.327-12.513  c-1.89-2.651-4.725-8.005-8.464-19.347c-1.843-5.591-5.14-16.854-4.995-18.478l0.121-1.354l1.145-0.787  c1.399-0.943,1.691-1.138,21.466,4.612c6.528,1.898,13.054,3.853,16.299,4.829c0.304-0.221,0.609-0.424,0.913-0.639  c-2.163-20.32,2.545-47.837,12.784-75.026c8.696-23.089,21.378-45.941,37.265-63.943c27.918-31.636,51.018-41.271,62.945-48.7  c0.467-0.291,0.923-0.58,1.356-0.865c-0.23-22.488,3.442-35.339,10.556-51.401s1.836-15.145-0.688-42.452  c-2.109-22.815,4.592-36.98,6.854-41.023c0.436-0.78,1.238-1.274,2.128-1.357c20.656-1.937,41.512,12.417,52.057,16.68  c10.785,4.36,23.177,5.048,60.529,5.048c37.353,0,49.744-0.688,60.529-5.048c10.545-4.263,31.401-18.617,52.057-16.68  c0.89,0.083,1.691,0.577,2.128,1.357c2.262,4.043,8.963,18.208,6.854,41.023c-2.524,27.307-7.802,26.389-0.688,42.452  s10.785,28.913,10.556,51.401c9.799,6.467,28.604,14.075,51.955,36.633c3.991,3.855,8.111,8.134,12.345,12.933  c34.411,38.994,53.842,100.736,50.111,138.37c-0.037,0.37,0.125,0.729,0.43,0.94c0.003,0.002,0.006,0.004,0.009,0.006  c0.262,0.181,0.589,0.238,0.894,0.146c3.379-1.016,9.598-2.875,15.817-4.684c12.17-3.539,16.961-4.826,19.172-5.073  c1.382-0.154,2.257-0.183,2.986,0.69c0.947,1.133,0.338,3.814-0.124,5.684c-1.044,4.226-3.021,10.829-4.299,14.705  c-0.636,1.929-1.243,3.672-1.827,5.27c-2.847,7.801-5.068,11.877-6.637,14.077c1.926,3.821,3.714,7.976,5.327,12.513  c0.351,0.987,0.679,1.975,0.996,2.964c7.935-1.311,17.059,0.264,26.413,4.579C613.578,376.653,614.404,377.561,614.791,378.657z   M556.181,341.473c0.586,1.616,1.481,3.133,2.822,4.345c3.569,3.223,8.428,5.257,12.067,6.435c1.496,0.484,2.791,0.828,3.697,1.044  c0.608-0.728,1.241-1.725,1.886-2.911c1.12-2.061,2.276-4.714,3.399-7.612c2.741-7.077,5.28-15.619,6.594-20.604  c-5.554,1.437-16.269,4.536-26.988,7.744c-1.41,0.422-2.819,0.845-4.217,1.267c-0.095,0.679-0.186,1.551-0.234,2.531  C555.096,335.978,555.232,338.856,556.181,341.473z M505.733,305.962l-3.555,2.982c0.57,0.755,1.294,1.664,2.129,2.626  c2.138,2.461,5.029,5.275,8.119,6.786c2.836,1.385,7.847,0.056,12.139-1.805c1.215-0.527,2.376-1.094,3.41-1.658l-0.445-3.303  l-1.329-9.869l-1.563-11.615l-3.04,2.549L505.733,305.962z M191.456,126.546c0,0,39.596-21.57,116.061-21.57  c76.465,0,116.061,21.57,116.061,21.57c0.688-33.503-8.641-65.335-30.061-78.25c-15.604-9.408-37.755-11.793-54.184-9.556  c-21.312,2.901-31.816,14.426-31.816,14.426s-10.505-11.525-31.816-14.426c-16.429-2.237-38.58,0.148-54.184,9.556  C200.097,61.211,190.768,93.043,191.456,126.546z M87.058,314.892c1.034,0.563,2.195,1.131,3.41,1.658  c4.292,1.861,9.304,3.191,12.139,1.805c3.091-1.51,5.981-4.324,8.119-6.786c0.835-0.962,1.559-1.871,2.129-2.626l-3.555-2.982  l-18.906-15.857l-2.892,21.484L87.058,314.892z M38.381,350.386c0.645,1.186,1.278,2.183,1.886,2.911  c0.906-0.216,2.202-0.56,3.697-1.044c3.639-1.178,8.498-3.212,12.067-6.435c3.515-3.175,3.976-8.441,3.796-12.106  c-0.048-0.98-0.14-1.852-0.234-2.531c-1.398-0.422-2.808-0.846-4.217-1.267c-10.719-3.208-21.434-6.307-26.988-7.744  C30.24,329.195,34.525,343.293,38.381,350.386z M27.938,392.51c1.689-2.137,2.773-4.167,3.267-6.073  c0.141-0.543,0.233-1.075,0.276-1.597c0.057-0.692,0.04-1.368-0.075-2.022c-0.528-2.997-2.791-4.962-3.708-5.649  c-0.122-0.019-0.247-0.031-0.37-0.048c-6.286-0.878-13.525,0.368-21.086,3.635c5.198,9.148,13.968,11.339,18.471,11.851  c1.378,0.157,2.361,0.158,2.714,0.151C27.628,392.753,27.819,392.66,27.938,392.51z M172.726,333.054  c-15.609-14.209-37.144-20.672-54.707-21.481c-2.11,2.907-7.041,9.047-12.905,11.913c-1.667,0.815-3.531,1.144-5.455,1.144  c-6.375,0-13.407-3.618-16.143-5.179c-5.799,2.536-12.125,5.702-18.385,10.15c0.283,1.694,0.65,4.837,0.294,8.344  c-0.418,4.118-1.834,8.739-5.567,12.11c-7.137,6.446-17.893,8.762-19.73,9.12c-1.742,3.485-3.366,7.25-4.827,11.361  c-0.544,1.531-1.043,3.063-1.501,4.595c1.355,1.597,2.698,3.798,3.213,6.601c0.841,4.579-0.705,9.397-4.595,14.318  c-0.61,0.772-1.381,1.376-2.246,1.789c-0.271,14.056,3.259,27.34,10.49,38.438c12.21,18.741,33.674,29.765,62.072,31.88  c29.844,2.22,55.089-7.339,71.082-25.828c6.395-7.393,11.316-16.208,14.453-26.277C202.081,371.719,187.44,346.448,172.726,333.054z   M416.006,272.948c22.718,7.343,61.957,18.587,80.315-13.998c2.187-3.883,3.897-7.686,5.193-11.412  c9.187-26.427-2.909-48.924-20.202-67.461c-9.761-10.463-21.173-19.666-31.344-27.601c-32.355-25.242-68.841-41.075-142.45-41.075  c-63.143,0-98.968,11.652-128.303,30.898c-4.862,3.19-9.547,6.588-14.148,10.178c-23.885,18.634-54.617,44.256-54.707,76.794  c-0.026,9.326,2.46,19.219,8.353,29.68c18.358,32.585,57.597,21.341,80.315,13.998c22.718-7.343,64.66-10.556,108.489-10.556  S393.288,265.605,416.006,272.948z M584.862,397.841c-0.865-0.413-1.635-1.017-2.246-1.789c-3.89-4.921-5.436-9.739-4.595-14.318  c0.515-2.804,1.858-5.004,3.213-6.601c-0.458-1.532-0.957-3.064-1.501-4.595c-1.462-4.111-3.086-7.876-4.827-11.361  c-1.837-0.357-12.593-2.674-19.73-9.12c-3.708-3.348-5.129-7.929-5.557-12.027c-0.003-0.028-0.007-0.056-0.01-0.083  c-0.356-3.507,0.011-6.65,0.294-8.344c-4.018-2.855-8.061-5.177-11.977-7.148c-2.185-1.1-4.331-2.094-6.408-3.002  c-2.736,1.561-9.768,5.179-16.143,5.179c-1.924,0-3.788-0.329-5.455-1.144c-5.864-2.866-10.795-9.006-12.905-11.913  c-17.563,0.809-39.097,7.272-54.707,21.481c-14.714,13.394-29.355,38.665-15.544,83c3.137,10.069,8.058,18.885,14.453,26.277  c15.993,18.489,41.238,28.049,71.082,25.828c28.398-2.115,49.862-13.139,62.072-31.88  C581.602,425.181,585.133,411.897,584.862,397.841z M608.793,380.755c-7.561-3.267-14.801-4.513-21.086-3.635  c-0.123,0.017-0.248,0.03-0.37,0.048c-0.917,0.687-3.179,2.652-3.708,5.649c-0.115,0.654-0.132,1.33-0.076,2.022  c0.043,0.522,0.135,1.055,0.276,1.597c0.494,1.907,1.578,3.936,3.267,6.073c0.119,0.15,0.31,0.243,0.512,0.247  c0.353,0.007,1.336,0.006,2.714-0.151C594.825,392.095,603.594,389.903,608.793,380.755z"></path>
<g>
</g>
<g>
</g>
<g>
</g>
<g>
</g>
<g>
</g>
</svg>
